<svg width="24" height="24" viewBox="0 0 24 24" fill="none" xmlns="http://www.w3.org/2000/svg">
<g clip-path="url(#clip0_484_5195)">
<path d="M12 0.000488281C5.38293 0.000488281 0 5.38342 0 12.0005C0 18.6176 5.38293 24.0005 12 24.0005C18.6171 24.0005 24 18.6176 24 12.0005C24 5.38342 18.6171 0.000488281 12 0.000488281ZM17.25 13.0004H12.9999V17.2505C12.9999 17.8026 12.5521 18.2504 12 18.2504C11.4479 18.2504 11.0001 17.8026 11.0001 17.2505V13.0004H6.75C6.19794 13.0004 5.75006 12.5526 5.75006 12.0005C5.75006 11.4484 6.19794 11.0005 6.75 11.0005H11.0001V6.75049C11.0001 6.19843 11.4479 5.75055 12 5.75055C12.5521 5.75055 12.9999 6.19843 12.9999 6.75049V11.0005H17.25C17.8021 11.0005 18.2499 11.4484 18.2499 12.0005C18.2499 12.5526 17.8021 13.0004 17.25 13.0004Z" fill="white"/>
</g>
<defs>
<clipPath id="clip0_484_5195">
<rect width="24" height="24" fill="white" transform="translate(0 0.000488281)"/>
</clipPath>
</defs>
</svg>
