<svg width="32" height="32" viewBox="0 0 32 32" fill="none" xmlns="http://www.w3.org/2000/svg">
<g id="vuesax/linear/profile">
<g id="profile">
<path id="Vector" d="M16.2115 14.4934C16.0781 14.4801 15.9181 14.4801 15.7715 14.4934C12.5981 14.3867 10.0781 11.7867 10.0781 8.58675C10.0781 5.32008 12.7181 2.66675 15.9981 2.66675C19.2648 2.66675 21.9181 5.32008 21.9181 8.58675C21.9048 11.7867 19.3848 14.3867 16.2115 14.4934Z" stroke="#292D32" stroke-width="1.5" stroke-linecap="round" stroke-linejoin="round"/>
<path id="Vector_2" d="M9.545 19.4133C6.31833 21.5733 6.31833 25.0933 9.545 27.2399C13.2117 29.6933 19.225 29.6933 22.8917 27.2399C26.1183 25.0799 26.1183 21.5599 22.8917 19.4133C19.2383 16.9733 13.225 16.9733 9.545 19.4133Z" stroke="#292D32" stroke-width="1.5" stroke-linecap="round" stroke-linejoin="round"/>
</g>
</g>
</svg>
