<svg width="20" height="20" viewBox="0 0 20 20" fill="none" xmlns="http://www.w3.org/2000/svg">
<path fill-rule="evenodd" clip-rule="evenodd" d="M16.7373 15.6496C16.7373 15.5454 16.7061 15.4621 16.6436 15.3996L15.3554 14.1006C15.2929 14.0381 15.2096 14.0068 15.1054 14.0068H14.6679C15.1679 13.4235 15.5586 12.7672 15.8398 12.0381C16.1211 11.3089 16.2617 10.5485 16.2617 9.75682C16.2617 8.56932 15.97 7.48078 15.3867 6.4912C14.8034 5.50162 14.0169 4.71517 13.0273 4.13183C12.0377 3.5485 10.9492 3.25684 9.7617 3.25684C8.57421 3.25684 7.48567 3.5485 6.49609 4.13183C5.50651 4.71517 4.72005 5.50162 4.13672 6.4912C3.55338 7.48078 3.26172 8.56932 3.26172 9.75682C3.26172 10.9443 3.55338 12.0329 4.13672 13.0224C4.72005 14.012 5.50651 14.7985 6.49609 15.3818C7.48567 15.9651 8.57421 16.2568 9.7617 16.2568C10.5534 16.2568 11.3138 16.1162 12.0429 15.8349C12.7721 15.5537 13.4284 15.1631 14.0117 14.6631V15.1006C14.0117 15.1839 14.0429 15.2672 14.1054 15.3506L15.3936 16.6183C15.4561 16.7017 15.5394 16.7433 15.6436 16.7433C15.7478 16.7433 15.8415 16.7017 15.9248 16.6183L16.6436 15.9308C16.7061 15.8475 16.7373 15.7538 16.7373 15.6496ZM12.2617 14.0849C11.4909 14.5329 10.6575 14.7568 9.7617 14.7568C8.86587 14.7568 8.03254 14.5329 7.26171 14.0849C6.49088 13.637 5.8815 13.0276 5.43359 12.2568C4.98567 11.486 4.76172 10.6527 4.76172 9.75682C4.76172 8.86099 4.98567 8.02766 5.43359 7.25683C5.8815 6.48599 6.49088 5.87662 7.26171 5.42871C8.03254 4.98079 8.86587 4.75683 9.7617 4.75683C10.6575 4.75683 11.4909 4.98079 12.2617 5.42871C13.0325 5.87662 13.6419 6.48599 14.0898 7.25683C14.5377 8.02766 14.7617 8.86099 14.7617 9.75682C14.7617 10.6527 14.5377 11.486 14.0898 12.2568C13.6419 13.0276 13.0325 13.637 12.2617 14.0849Z" fill="#BDBDBD"/>
</svg>
