<svg width="17" height="17" viewBox="0 0 17 17" fill="none" xmlns="http://www.w3.org/2000/svg">
<g id="Star 1">
<g id="Group">
<path id="Vector" d="M8.7232 12.3746L11.8041 14.3263C12.1979 14.5755 12.6865 14.2046 12.5697 13.7448L11.6799 10.2437C11.6548 10.1462 11.6577 10.0435 11.6883 9.94759C11.7189 9.85164 11.776 9.76628 11.8529 9.70132L14.6157 7.40228C14.9782 7.1003 14.7916 6.49781 14.3249 6.46752L10.7173 6.23297C10.6202 6.22608 10.527 6.19175 10.4486 6.13396C10.3703 6.07617 10.3099 5.99732 10.2746 5.90656L8.92892 2.51836C8.89227 2.42207 8.82723 2.33919 8.74241 2.28071C8.65758 2.22223 8.55699 2.19092 8.45396 2.19092C8.35093 2.19092 8.25034 2.22223 8.16552 2.28071C8.0807 2.33919 8.01565 2.42207 7.97901 2.51836L6.6333 5.90656C6.59808 5.99741 6.53776 6.07637 6.45938 6.13424C6.381 6.19212 6.28779 6.22653 6.1906 6.23346L2.583 6.46801C2.11684 6.49781 1.9292 7.1003 2.29226 7.40228L5.05501 9.7018C5.13188 9.76673 5.18888 9.85201 5.21948 9.94786C5.25007 10.0437 5.25302 10.1463 5.22799 10.2437L4.40317 13.4907C4.26293 14.0424 4.84978 14.4875 5.3218 14.188L8.18521 12.3746C8.26569 12.3235 8.35908 12.2963 8.45445 12.2963C8.54982 12.2963 8.64321 12.3235 8.72369 12.3746H8.7232Z" fill="#FF8A00"/>
</g>
</g>
</svg>
