<svg width="20" height="20" viewBox="0 0 20 20" fill="none" xmlns="http://www.w3.org/2000/svg">
<g clip-path="url(#clip0_849_2692)">
<path d="M17.8152 14.0947C16.5552 13.0297 15.8327 11.473 15.8327 9.82382V7.50049C15.8327 4.56799 13.6543 2.14049 10.8327 1.73382V0.833822C10.8327 0.372988 10.4593 0.000488281 9.99935 0.000488281C9.53935 0.000488281 9.16602 0.372988 9.16602 0.833822V1.73382C6.34352 2.14049 4.16602 4.56799 4.16602 7.50049V9.82382C4.16602 11.473 3.44352 13.0297 2.17602 14.1013C1.85185 14.3788 1.66602 14.7822 1.66602 15.2088C1.66602 16.013 2.32018 16.6672 3.12435 16.6672H16.8743C17.6785 16.6672 18.3327 16.013 18.3327 15.2088C18.3327 14.7822 18.1468 14.3788 17.8152 14.0947Z" fill="#828282"/>
<path d="M9.99917 20.0005C11.5083 20.0005 12.7708 18.9247 13.0608 17.5005H6.9375C7.2275 18.9247 8.49 20.0005 9.99917 20.0005Z" fill="#828282"/>
</g>
<defs>
<clipPath id="clip0_849_2692">
<rect width="20" height="20" fill="white" transform="translate(0 0.000488281)"/>
</clipPath>
</defs>
</svg>
