<svg width="20" height="21" viewBox="0 0 20 21" fill="none" xmlns="http://www.w3.org/2000/svg">
<path fill-rule="evenodd" clip-rule="evenodd" d="M10.1335 13.1571V14.6774C10.1335 14.7204 10.1548 14.7574 10.1921 14.7789L11.382 15.4659C11.4604 15.5112 11.5578 15.4549 11.5578 15.3644V13.3342L16.469 10.4987L18.0172 11.3926C18.1414 11.4643 18.2125 11.5874 18.2125 11.7308V16.9508C18.2125 17.0942 18.1414 17.2174 18.0172 17.2891L13.4966 19.899C13.3723 19.9708 13.2302 19.9708 13.1059 19.899L8.58531 17.2891C8.46109 17.2174 8.39 17.0942 8.39 16.9508V12.2271L9.78488 13.0324C9.89524 13.0961 10.0132 13.1376 10.1335 13.1571ZM10.488 1.37459C10.3638 1.30287 10.2216 1.30287 10.0974 1.37459L5.57676 3.98459C5.45254 4.05631 5.38145 4.17947 5.38145 4.32287V9.54283C5.38145 9.68627 5.45254 9.80939 5.57676 9.88111L10.0974 12.4911C10.2216 12.5628 10.3638 12.5628 10.488 12.4911L15.0086 9.88111C15.1329 9.80939 15.2039 9.68627 15.2039 9.54283V4.32287C15.2039 4.17943 15.1329 4.05631 15.0086 3.98459L13.4604 3.09076L8.54922 5.92627V7.95643C8.54922 8.04693 8.45184 8.10314 8.37344 8.05791L7.18355 7.37092C7.14629 7.34939 7.12496 7.31248 7.12496 7.26943V5.10396L12.0362 2.26846L10.488 1.37459ZM4.75645 7.99424L3.53254 8.70088V10.8663C3.53254 10.9094 3.55387 10.9463 3.59113 10.9678L4.78102 11.6548C4.85938 11.7001 4.9568 11.6438 4.9568 11.5533V10.1506C5.03785 10.2588 5.14152 10.3515 5.26422 10.4224L7.76496 11.8662V15.5861L6.89555 16.088C6.77133 16.1597 6.62914 16.1597 6.50492 16.088L1.98438 13.4781C1.86016 13.4063 1.78906 13.2832 1.78906 13.1398V7.91978C1.78906 7.77635 1.86016 7.65322 1.98438 7.5815L4.75645 5.98107V7.99424Z" fill="#ACACAC"/>
</svg>
