<svg width="20" height="21" viewBox="0 0 20 21" fill="none" xmlns="http://www.w3.org/2000/svg">
<g clip-path="url(#clip0_484_5172)">
<path d="M4.27793 9.82734C4.6405 9.82734 4.96867 9.68187 5.21117 9.44827L6.5415 10.1134C6.53483 10.1676 6.525 10.2208 6.525 10.2768C6.525 11.0202 7.12984 11.625 7.87324 11.625C8.61665 11.625 9.22148 11.0202 9.22148 10.2768C9.22148 10.0693 9.17046 9.87498 9.08631 9.69919L10.891 7.89451C11.0668 7.97866 11.2611 8.02969 11.4686 8.02969C12.212 8.02969 12.8168 7.42485 12.8168 6.68145C12.8168 6.54147 12.7893 6.40911 12.7495 6.28212L14.3175 5.10639C14.5315 5.24929 14.7879 5.3332 15.0639 5.3332C15.8073 5.3332 16.4121 4.72837 16.4121 3.98496C16.4121 3.24156 15.8073 2.63672 15.0639 2.63672C14.3205 2.63672 13.7156 3.24156 13.7156 3.98496C13.7156 4.12493 13.7431 4.2573 13.7829 4.38428L12.2149 5.56002C12.0009 5.41712 11.7445 5.3332 11.4686 5.3332C10.7251 5.3332 10.1203 5.93804 10.1203 6.68145C10.1203 6.88895 10.1713 7.08323 10.2555 7.25901L8.45081 9.06369C8.27502 8.97954 8.08075 8.92852 7.87324 8.92852C7.51067 8.92852 7.1825 9.07399 6.94001 9.30759L5.60967 8.64248C5.61634 8.58829 5.62617 8.53504 5.62617 8.4791C5.62617 7.7357 5.02134 7.13086 4.27793 7.13086C3.53452 7.13086 2.92969 7.7357 2.92969 8.4791C2.92969 9.22251 3.53452 9.82734 4.27793 9.82734Z" fill="#ACACAC"/>
<path d="M16.8906 17.0779H16.4112V7.58027C16.4112 7.33193 16.2101 7.13086 15.9618 7.13086H14.1641C13.9158 7.13086 13.7147 7.33193 13.7147 7.58027V17.0779H12.8159V10.2768C12.8159 10.0284 12.6148 9.82734 12.3665 9.82734H10.5688C10.3205 9.82734 10.1194 10.0284 10.1194 10.2768V17.0779H9.22059V13.8721C9.22059 13.6237 9.01952 13.4227 8.77117 13.4227H6.97352C6.72517 13.4227 6.5241 13.6237 6.5241 13.8721V17.0779H5.62527V12.0744C5.62527 11.8261 5.42421 11.625 5.17586 11.625H3.3782C3.12986 11.625 2.92879 11.8261 2.92879 12.0744V17.0779H2.44941C2.20107 17.0779 2 17.279 2 17.5273C2 17.7757 2.20107 17.9767 2.44941 17.9767H16.8906C17.1389 17.9767 17.34 17.7757 17.34 17.5273C17.34 17.279 17.1389 17.0779 16.8906 17.0779Z" fill="#ACACAC"/>
</g>
<defs>
<clipPath id="clip0_484_5172">
<rect width="15.34" height="15.34" fill="white" transform="translate(2 2.63672)"/>
</clipPath>
</defs>
</svg>
