<svg width="20" height="21" viewBox="0 0 20 21" fill="none" xmlns="http://www.w3.org/2000/svg">
<g clip-path="url(#clip0_484_5159)">
<path d="M13.125 1.88672H11.7675C11.51 1.15922 10.815 0.636719 10 0.636719C9.185 0.636719 8.49 1.15922 8.23125 1.88672H6.875C6.53 1.88672 6.25 2.16672 6.25 2.51172V5.01172C6.25 5.35672 6.53 5.63672 6.875 5.63672H13.125C13.47 5.63672 13.75 5.35672 13.75 5.01172V2.51172C13.75 2.16672 13.47 1.88672 13.125 1.88672Z" fill="#ACACAC"/>
<path d="M16.25 3.13672H15V5.01172C15 6.04547 14.1587 6.88672 13.125 6.88672H6.875C5.84125 6.88672 5 6.04547 5 5.01172V3.13672H3.75C3.06125 3.13672 2.5 3.69797 2.5 4.38672V19.3867C2.5 20.088 3.04875 20.6367 3.75 20.6367H16.25C16.9513 20.6367 17.5 20.088 17.5 19.3867V4.38672C17.5 3.68547 16.9513 3.13672 16.25 3.13672ZM9.8175 14.2042L7.3175 16.7042C7.195 16.8255 7.035 16.8867 6.875 16.8867C6.715 16.8867 6.555 16.8255 6.4325 16.7042L5.1825 15.4542C4.93875 15.2105 4.93875 14.8142 5.1825 14.5705C5.42625 14.3267 5.8225 14.3267 6.06625 14.5705L6.875 15.378L8.9325 13.3205C9.17625 13.0767 9.5725 13.0767 9.81625 13.3205C10.06 13.5642 10.0613 13.9592 9.8175 14.2042ZM9.8175 9.20422L7.3175 11.7042C7.195 11.8255 7.035 11.8867 6.875 11.8867C6.715 11.8867 6.555 11.8255 6.4325 11.7042L5.1825 10.4542C4.93875 10.2105 4.93875 9.81422 5.1825 9.57047C5.42625 9.32672 5.8225 9.32672 6.06625 9.57047L6.875 10.378L8.9325 8.32047C9.17625 8.07672 9.5725 8.07672 9.81625 8.32047C10.06 8.56422 10.0613 8.95922 9.8175 9.20422ZM14.375 15.6367H11.875C11.53 15.6367 11.25 15.3567 11.25 15.0117C11.25 14.6667 11.53 14.3867 11.875 14.3867H14.375C14.72 14.3867 15 14.6667 15 15.0117C15 15.3567 14.72 15.6367 14.375 15.6367ZM14.375 10.6367H11.875C11.53 10.6367 11.25 10.3567 11.25 10.0117C11.25 9.66672 11.53 9.38672 11.875 9.38672H14.375C14.72 9.38672 15 9.66672 15 10.0117C15 10.3567 14.72 10.6367 14.375 10.6367Z" fill="#ACACAC"/>
</g>
<defs>
<clipPath id="clip0_484_5159">
<rect width="20" height="20" fill="white" transform="translate(0 0.636719)"/>
</clipPath>
</defs>
</svg>
