<svg width="20" height="21" viewBox="0 0 20 21" fill="none" xmlns="http://www.w3.org/2000/svg">
<path fill-rule="evenodd" clip-rule="evenodd" d="M6.88591 13.7783C6.88591 13.7783 6.8859 13.7783 6.8859 13.7782C6.84564 13.5058 6.9994 13.2727 7.20327 13.206C7.23255 13.1964 7.23942 13.1866 7.2688 13.1796C7.39417 13.1499 7.55433 13.1694 7.65612 13.2173C7.72667 13.2505 7.80468 13.3261 7.84811 13.3809C7.86884 13.4072 7.90333 13.4606 7.91473 13.4951C7.92406 13.5235 7.92376 13.5391 7.93447 13.5662C7.95196 13.6104 7.97653 13.7299 7.98792 13.7795C7.99284 13.801 8.00473 13.8124 8.01239 13.8368C8.02163 13.8661 8.01956 13.8777 8.03283 13.9072C8.06879 13.9868 8.10357 14.0796 8.1467 14.1564L8.19131 14.2403C8.21607 14.2869 8.25606 14.3324 8.2817 14.3767C8.3438 14.4842 8.44117 14.5806 8.52763 14.6681C8.55623 14.697 8.58698 14.7232 8.62216 14.7553C8.64082 14.7724 8.65134 14.7814 8.66932 14.7991C8.7376 14.866 8.84745 14.9313 8.93126 14.9835C8.96939 15.0072 9.00711 15.0256 9.04838 15.0479L9.2389 15.1304C9.26434 15.14 9.27162 15.15 9.30178 15.1571L9.4415 15.1996C9.50644 15.2211 9.54358 15.2202 9.5875 15.2351C9.74324 15.2877 10.0706 15.2887 10.2382 15.2639C10.2926 15.2559 10.352 15.2585 10.4005 15.2455C10.4244 15.239 10.442 15.2302 10.4733 15.225C10.5408 15.2137 10.6174 15.1956 10.68 15.1694C10.7047 15.159 10.7272 15.158 10.7498 15.1481C10.8519 15.104 10.9636 15.0608 11.0567 15.0015L11.2706 14.8597C11.3929 14.7702 11.4978 14.668 11.6024 14.556C11.6203 14.5369 11.6312 14.5256 11.643 14.5056C11.6676 14.4643 11.6915 14.4432 11.7212 14.4024C11.7497 14.3632 11.7865 14.319 11.8096 14.2715C11.8542 14.18 11.9108 14.101 11.9471 14.0002C11.9598 13.965 11.9651 13.9741 11.9754 13.9374L12.0209 13.8018C12.0551 13.7189 12.0681 13.604 12.0999 13.5181C12.1964 13.2568 12.4501 13.1209 12.7247 13.1788C12.7538 13.185 12.7638 13.1961 12.7904 13.2051C12.8733 13.2329 12.9504 13.2895 12.9993 13.3591C13.0457 13.4252 13.0948 13.5059 13.1071 13.6143C13.1217 13.7441 13.0981 13.8176 13.0744 13.9322C13.0583 14.0104 13.0249 14.1432 12.9953 14.2163L12.8348 14.5921C12.8231 14.617 12.8158 14.6267 12.8028 14.6516L12.7069 14.8204C12.6794 14.878 12.634 14.9327 12.6008 14.9868C12.5696 15.0376 12.5197 15.0946 12.4815 15.1404C12.3594 15.2864 12.3212 15.3374 12.1789 15.4727C12.0082 15.6349 11.8232 15.7784 11.619 15.896C11.5999 15.907 11.5879 15.9157 11.5616 15.9299C11.4867 15.9707 11.3402 16.0521 11.2599 16.0822C11.0255 16.1704 10.8295 16.2507 10.5674 16.2878C10.5246 16.2939 10.477 16.3099 10.4242 16.3139C10.2034 16.3308 9.96834 16.3602 9.74579 16.3312C9.69224 16.3242 9.63889 16.3205 9.58131 16.3156C9.49249 16.308 9.29883 16.2676 9.20618 16.2455L8.61596 16.0243C8.60113 16.0182 8.59789 16.0194 8.58354 16.0121C8.56507 16.0025 8.57529 16.0051 8.55574 15.9946L8.32297 15.8639C8.2987 15.8483 8.2874 15.8412 8.26805 15.8275C8.19721 15.7771 8.12165 15.734 8.057 15.6761C8.02742 15.6496 7.98429 15.6246 7.95334 15.598C7.78857 15.457 7.64492 15.3022 7.50894 15.1421C7.46924 15.0954 7.38347 14.9833 7.35556 14.9326C7.31449 14.858 7.25996 14.7864 7.22233 14.7103C7.21555 14.6967 7.21565 14.6932 7.20769 14.6797C7.19953 14.6656 7.20042 14.6705 7.19049 14.6515L7.04783 14.3402C6.98367 14.18 6.91471 13.9725 6.88591 13.7784C6.88591 13.7784 6.88591 13.7783 6.88591 13.7783ZM4.46266 18.6331C4.46272 18.633 4.46285 18.6329 4.46298 18.6329H15.5224C15.6476 18.6329 15.781 18.6268 15.898 18.6012C15.9713 18.5851 15.9733 18.593 16.0678 18.5672C16.0941 18.56 16.1237 18.5586 16.1498 18.5512C16.2411 18.5252 16.4403 18.4587 16.5253 18.4121C16.5932 18.3749 16.661 18.3483 16.7283 18.3051C16.853 18.2253 16.9746 18.1484 17.0872 18.0513C17.107 18.0342 17.1227 18.0171 17.1421 18.0003L17.2933 17.8486C17.3104 17.8292 17.3275 17.8131 17.3445 17.7941C17.3763 17.7585 17.405 17.7164 17.4352 17.6805C17.4541 17.6579 17.4601 17.6438 17.4761 17.6235C17.5243 17.5628 17.5627 17.4959 17.6 17.4292C17.6095 17.4123 17.6233 17.3884 17.6367 17.3676C17.6787 17.3015 17.7034 17.2296 17.7381 17.1592C17.7962 17.0412 17.8311 16.9038 17.8607 16.775C17.8681 16.7431 17.8779 16.7273 17.884 16.6912C17.9221 16.4682 17.9261 16.3513 17.9261 16.116C17.9262 13.3801 17.9347 10.6308 17.9224 7.9009C17.9218 7.78378 17.906 7.64466 17.878 7.53422L17.8132 7.29684C17.8015 7.2651 17.7963 7.25636 17.7858 7.21882C17.7781 7.19111 17.7657 7.17471 17.7574 7.14887C17.7441 7.10671 17.7389 7.10779 17.7258 7.0738C17.6894 6.97928 17.6347 6.8939 17.5887 6.80281L17.4209 6.55413C17.3539 6.45156 17.2164 6.32373 17.1255 6.23716C17.0554 6.17045 16.9725 6.11671 16.8958 6.05805C16.8124 5.99408 16.7278 5.9594 16.6376 5.90025C16.5963 5.87303 16.5478 5.8526 16.5061 5.82735L15.3084 5.17946C15.2931 5.1718 15.2642 5.15716 15.2453 5.14517L14.8436 4.92596C14.8177 4.9124 14.8019 4.90209 14.7735 4.88981L13.9106 4.42133C13.8887 4.40924 13.8632 4.39775 13.8416 4.38478C13.7387 4.32327 13.4165 4.14494 13.3072 4.09424L11.0421 2.87255C10.9532 2.83846 10.8456 2.77724 10.7484 2.74904C10.4891 2.67398 10.2487 2.6333 9.95468 2.6333C9.79285 2.6333 9.64439 2.65747 9.49337 2.68145C9.43246 2.69117 9.30954 2.73038 9.24902 2.74678L9.10065 2.80308C9.04779 2.82637 9.00633 2.83688 8.95759 2.8642C8.94571 2.87088 8.93912 2.87255 8.92694 2.87884C8.91102 2.88699 8.90817 2.89171 8.89393 2.89957L8.42044 3.15149C8.40187 3.1624 8.37632 3.17615 8.35795 3.18745L8.19102 3.27726C8.17431 3.28512 8.17756 3.28571 8.1579 3.2976C8.11202 3.3254 8.06889 3.34525 8.02605 3.36952C7.97417 3.3989 7.94597 3.41413 7.8936 3.44154L7.297 3.76814C7.26753 3.78219 7.2576 3.78877 7.22793 3.80449L6.59891 4.15152C6.58476 4.16046 6.58161 4.15968 6.56314 4.16872L6.36791 4.2765C6.34482 4.29104 6.32153 4.29773 6.29864 4.31286L6.13662 4.4005C6.07246 4.42968 5.97656 4.49738 5.90386 4.53088L5.57097 4.71295C5.55093 4.72611 5.52627 4.73564 5.50229 4.7497L5.23799 4.89383C5.15054 4.92911 4.65652 5.22112 4.50845 5.29147L4.11357 5.50999C4.09411 5.52217 4.06238 5.53877 4.04518 5.54673C3.9937 5.57051 3.96186 5.59792 3.91234 5.61856L3.64765 5.76201C3.60294 5.78873 3.56236 5.8077 3.51746 5.8357C3.49476 5.84985 3.46961 5.85938 3.4478 5.87205L3.18782 6.02061C3.10587 6.07514 2.9016 6.21997 2.84206 6.28767C2.79431 6.3419 2.73162 6.38602 2.68672 6.44261C2.66746 6.46688 2.66727 6.47406 2.64486 6.49901C2.60448 6.54391 2.55919 6.59815 2.52942 6.64865L2.44511 6.76842C2.38518 6.86088 2.339 6.97417 2.28496 7.06948C2.23848 7.15162 2.15418 7.43144 2.13493 7.53284C2.12942 7.56183 2.11979 7.58256 2.11429 7.60938L2.07804 7.89314C2.06821 8.15882 2.07391 8.43334 2.07391 8.70266C2.07391 8.97757 2.07391 9.25239 2.07391 9.5272V16.0934C2.07391 16.2202 2.06733 16.3667 2.09022 16.4841C2.10181 16.5433 2.10181 16.6033 2.11429 16.6646L2.13463 16.7522C2.14666 16.8041 2.16412 16.8546 2.17432 16.9069C2.18435 16.9587 2.28624 17.2236 2.31797 17.277L2.42959 17.4758C2.52038 17.6186 2.6202 17.7612 2.74155 17.8827C2.88077 18.0222 3.02786 18.1453 3.19293 18.2561C3.31034 18.3349 3.46352 18.4144 3.59911 18.4624L3.75229 18.5215C3.9731 18.5859 4.21178 18.6333 4.46235 18.6333C4.46248 18.6333 4.4626 18.6332 4.46266 18.6331Z" fill="#ACACAC"/>
</svg>
