<svg width="24" height="24" viewBox="0 0 24 24" fill="none" xmlns="http://www.w3.org/2000/svg">
<g id="kebabIcon">
<g id="ellipsis-v">
<path d="M12 8C13.1045 8 14 7.10456 14 6C14 4.89544 13.1045 4 12 4C10.8955 4 10 4.89544 10 6C10 7.10456 10.8955 8 12 8Z" fill="#828282"/>
<path d="M14 11.9844C14 13.0889 13.1045 13.9844 12 13.9844C10.8955 13.9844 10 13.0889 10 11.9844C10 10.8798 10.8955 9.98438 12 9.98438C13.1045 9.98438 14 10.8798 14 11.9844Z" fill="#828282"/>
<path d="M14 18C14 19.1046 13.1045 20 12 20C10.8955 20 10 19.1046 10 18C10 16.8954 10.8955 16 12 16C13.1045 16 14 16.8954 14 18Z" fill="#828282"/>
</g>
</g>
</svg>
