<svg width="16" height="17" viewBox="0 0 16 17" fill="none" xmlns="http://www.w3.org/2000/svg">
<g id="Star 5">
<g id="Group">
<path id="Vector" d="M8.27008 12.3746L11.3509 14.3263C11.7448 14.5755 12.2334 14.2046 12.1166 13.7448L11.2268 10.2437C11.2017 10.1462 11.2046 10.0435 11.2352 9.94759C11.2658 9.85164 11.3228 9.76628 11.3998 9.70132L14.1625 7.40228C14.5251 7.1003 14.3385 6.49781 13.8718 6.46752L10.2642 6.23297C10.1671 6.22608 10.0739 6.19175 9.99552 6.13396C9.91715 6.07617 9.8568 5.99732 9.8215 5.90656L8.47579 2.51836C8.43915 2.42207 8.3741 2.33919 8.28928 2.28071C8.20446 2.22223 8.10386 2.19092 8.00084 2.19092C7.89781 2.19092 7.79722 2.22223 7.71239 2.28071C7.62757 2.33919 7.56253 2.42207 7.52588 2.51836L6.18018 5.90656C6.14495 5.99741 6.08464 6.07637 6.00626 6.13424C5.92788 6.19212 5.83466 6.22653 5.73747 6.23346L2.12987 6.46801C1.66371 6.49781 1.47608 7.1003 1.83913 7.40228L4.60188 9.7018C4.67875 9.76673 4.73575 9.85201 4.76635 9.94786C4.79695 10.0437 4.7999 10.1463 4.77486 10.2437L3.95004 13.4907C3.8098 14.0424 4.39666 14.4875 4.86868 14.188L7.73209 12.3746C7.81257 12.3235 7.90596 12.2963 8.00133 12.2963C8.09669 12.2963 8.19009 12.3235 8.27056 12.3746H8.27008Z" fill="#CCCCCC"/>
</g>
</g>
</svg>
