<svg width="49" height="48" viewBox="0 0 49 48" fill="none" xmlns="http://www.w3.org/2000/svg">
<path d="M0.501953 31.2173C0.501953 30.592 0.501953 29.9666 0.501953 29.3422C0.530079 29.2551 0.571329 29.1707 0.583517 29.0816C1.09634 25.2256 3.90421 22.1037 7.69178 21.2158C8.02554 21.1371 8.13991 21.0049 8.20742 20.6833C9.84714 12.871 17.5151 7.4437 25.3799 8.55559C30.4791 9.27654 34.3417 11.8866 36.9845 16.3117C37.083 16.4767 37.3183 16.652 37.4983 16.6614C42.6622 16.9304 46.926 20.4086 48.1673 25.4009C48.306 25.9578 48.3923 26.5269 48.5029 27.0913C48.5029 27.7785 48.5029 28.4666 48.5029 29.1538C48.4748 29.2579 48.4316 29.3601 48.4195 29.466C47.736 35.138 43.0784 39.4449 37.3671 39.5706C33.6357 39.6531 29.9007 39.5959 26.1675 39.5987C26.0943 39.5987 26.0212 39.579 25.9443 39.5687C25.9443 35.6667 25.9443 31.792 25.9443 27.8385C26.9381 28.8322 27.8709 29.7726 28.8131 30.7045C29.445 31.3298 30.2841 31.3607 30.8635 30.7963C31.4307 30.2441 31.4241 29.3535 30.8194 28.7441C29.07 26.9816 27.3131 25.2247 25.5506 23.4743C24.9149 22.8434 24.0965 22.8387 23.4693 23.4621C21.6955 25.2228 19.9283 26.99 18.1676 28.7647C17.5845 29.3526 17.5826 30.2348 18.1301 30.7832C18.6879 31.342 19.5411 31.3392 20.1458 30.7495C21.0064 29.9094 21.8492 29.0507 22.7014 28.2022C22.8055 28.0982 22.919 28.0025 23.0661 27.8694C23.0661 31.8126 23.0661 35.6911 23.0661 39.5734C22.9752 39.5856 22.9143 39.6006 22.8533 39.6006C18.3701 39.5959 13.886 39.6512 9.40463 39.5668C5.42767 39.4918 1.96073 36.6924 0.87321 32.8533C0.720395 32.3151 0.623831 31.762 0.501953 31.2173Z" fill="#2D2D2D"/>
</svg>
